<?xml version="1.0" ?><svg height="210mm" id="svg6336" version="1.1" viewBox="0 0 210 210" width="210mm" xmlns="http://www.w3.org/2000/svg" xmlns:cc="http://creativecommons.org/ns#" xmlns:dc="http://purl.org/dc/elements/1.1/" xmlns:rdf="http://www.w3.org/1999/02/22-rdf-syntax-ns#" xmlns:svg="http://www.w3.org/2000/svg"><defs id="defs6330"/><g id="layer1" transform="translate(0,-87)"><path d="m 66.886719,22.435547 c -23.555913,0 -42.519531,18.963622 -42.519531,42.519531 V 270.39453 H 771.91797 V 64.955078 c 0,-23.555909 -18.96363,-42.519531 -42.51953,-42.519531 H 400.4082 Z" id="path7602" style="opacity:1;fill:#d90012;fill-opacity:1;fill-rule:nonzero;stroke:none;stroke-width:1.00157475;stroke-linecap:round;stroke-linejoin:round;stroke-miterlimit:4;stroke-dasharray:none;stroke-dashoffset:0;stroke-opacity:1" transform="matrix(0.26458333,0,0,0.26458333,0,87)"/><path d="M 24.367188,522.02734 V 727.4668 c 0,23.5559 18.963618,42.51953 42.519531,42.51953 H 400.4082 729.39844 c 23.5559,0 42.51953,-18.96363 42.51953,-42.51953 V 522.02734 Z" id="rect6883" style="opacity:1;fill:#ff650f;fill-opacity:1;fill-rule:nonzero;stroke:none;stroke-width:1.00157475;stroke-linecap:round;stroke-linejoin:round;stroke-miterlimit:4;stroke-dasharray:none;stroke-dashoffset:0;stroke-opacity:1" transform="matrix(0.26458333,0,0,0.26458333,0,87)"/><path d="M 24.367188 270.39453 L 24.367188 522.02734 L 771.91797 522.02734 L 771.91797 270.39453 L 24.367188 270.39453 z " id="rect7587" style="opacity:1;fill:#0033a0;fill-opacity:1;fill-rule:nonzero;stroke:none;stroke-width:1.02818668;stroke-linecap:round;stroke-linejoin:round;stroke-miterlimit:4;stroke-dasharray:none;stroke-dashoffset:0;stroke-opacity:1" transform="matrix(0.26458333,0,0,0.26458333,0,87)"/></g></svg>