<?xml version="1.0" ?><svg height="210mm" id="svg6336" version="1.1" viewBox="0 0 210 210" width="210mm" xmlns="http://www.w3.org/2000/svg" xmlns:cc="http://creativecommons.org/ns#" xmlns:dc="http://purl.org/dc/elements/1.1/" xmlns:rdf="http://www.w3.org/1999/02/22-rdf-syntax-ns#" xmlns:svg="http://www.w3.org/2000/svg"><defs id="defs6330"/><g id="layer1" transform="translate(0,-87)"><path d="m 66.886719,22.435547 c -23.555898,0 -42.519531,18.963626 -42.519531,42.519531 V 270.39453 522.02734 727.4668 c 0,23.5559 18.963633,42.51953 42.519531,42.51953 H 68.582031 182.77148 270 273.24414 V 22.435547 H 270 190.18555 68.582031 Z" id="path7764" style="opacity:1;fill:#000000;fill-opacity:1;fill-rule:nonzero;stroke:none;stroke-width:1.00157475;stroke-linecap:round;stroke-linejoin:round;stroke-miterlimit:4;stroke-dasharray:none;stroke-dashoffset:0;stroke-opacity:1" transform="matrix(0.26458333,0,0,0.26458333,0,87)"/><path d="M 523.04102,22.435547 V 769.98633 h 204.6621 1.69532 c 23.5559,0 42.51953,-18.96363 42.51953,-42.51953 V 522.02734 396.9668 270.39453 64.955078 c 0,-23.555909 -18.96363,-42.519531 -42.51953,-42.519531 h -1.69532 z" id="path7602" style="opacity:1;fill:#ed2939;fill-opacity:1;fill-rule:nonzero;stroke:none;stroke-width:1.00157475;stroke-linecap:round;stroke-linejoin:round;stroke-miterlimit:4;stroke-dasharray:none;stroke-dashoffset:0;stroke-opacity:1" transform="matrix(0.26458333,0,0,0.26458333,0,87)"/><path d="M 273.24414 22.435547 L 273.24414 769.98633 L 395.87695 769.98633 L 400.4082 769.98633 L 523.04102 769.98633 L 523.04102 22.435547 L 400.4082 22.435547 L 395.87695 22.435547 L 273.24414 22.435547 z " id="rect7750" style="opacity:1;fill:#fae042;fill-opacity:1;fill-rule:nonzero;stroke:none;stroke-width:1.05748188;stroke-linecap:round;stroke-linejoin:round;stroke-miterlimit:4;stroke-dasharray:none;stroke-dashoffset:0;stroke-opacity:1" transform="matrix(0.26458333,0,0,0.26458333,0,87)"/></g></svg>