<?xml version="1.0" ?><svg height="210mm" id="svg6336" version="1.1" viewBox="0 0 210 210" width="210mm" xmlns="http://www.w3.org/2000/svg" xmlns:cc="http://creativecommons.org/ns#" xmlns:dc="http://purl.org/dc/elements/1.1/" xmlns:rdf="http://www.w3.org/1999/02/22-rdf-syntax-ns#" xmlns:svg="http://www.w3.org/2000/svg"><defs id="defs6330"/><g id="layer1" transform="translate(0,-87)"><path d="M 66.886719 22.435547 C 43.330821 22.435547 24.367188 41.399173 24.367188 64.955078 L 24.367188 270.39453 L 24.367188 522.02734 L 24.367188 727.4668 C 24.367188 751.0227 43.330821 769.98633 66.886719 769.98633 L 68.582031 769.98633 L 182.77148 769.98633 L 361.82227 694.30469 L 191.71484 617.58984 L 361.82227 545.6875 L 191.71484 468.97266 L 361.82227 397.07227 L 191.71484 320.35742 L 361.82227 248.45508 L 191.71484 171.74023 L 361.82227 99.839844 L 190.18555 22.435547 L 68.582031 22.435547 L 66.886719 22.435547 z " id="path7602" style="opacity:1;fill:#ffffff;fill-opacity:1;fill-rule:nonzero;stroke:none;stroke-width:1.00157475;stroke-linecap:round;stroke-linejoin:round;stroke-miterlimit:4;stroke-dasharray:none;stroke-dashoffset:0;stroke-opacity:1" transform="matrix(0.26458333,0,0,0.26458333,0,87)"/><path d="m 190.18555,22.435547 171.63672,77.404297 -170.10743,71.900386 170.10743,76.71485 -170.10743,71.90234 170.10743,76.71485 -170.10743,71.90039 170.10743,76.71484 -170.10743,71.90234 170.10743,76.71485 -179.05079,75.68164 h 213.10547 4.53125 327.29492 1.69532 c 23.5559,0 42.51953,-18.96363 42.51953,-42.51953 V 522.02734 270.39453 64.955078 c 0,-23.555909 -18.96363,-42.519531 -42.51953,-42.519531 h -1.69532 -327.29492 -4.53125 z" id="path7709" style="opacity:1;fill:#de0825;fill-opacity:1;fill-rule:nonzero;stroke:none;stroke-width:1.00157475;stroke-linecap:round;stroke-linejoin:round;stroke-miterlimit:4;stroke-dasharray:none;stroke-dashoffset:0;stroke-opacity:1" transform="matrix(0.26458333,0,0,0.26458333,0,87)"/></g></svg>