<?xml version="1.0" ?><svg height="210mm" id="svg6336" version="1.1" viewBox="0 0 210 210" width="210mm" xmlns="http://www.w3.org/2000/svg" xmlns:cc="http://creativecommons.org/ns#" xmlns:dc="http://purl.org/dc/elements/1.1/" xmlns:rdf="http://www.w3.org/1999/02/22-rdf-syntax-ns#" xmlns:svg="http://www.w3.org/2000/svg"><defs id="defs6330"/><path d="M 66.886719 22.435547 C 43.330805 22.435547 24.367188 41.399168 24.367188 64.955078 L 24.367188 727.4668 C 24.367188 751.0227 43.330805 769.98633 66.886719 769.98633 L 400.4082 769.98633 L 729.39844 769.98633 C 752.95434 769.98633 771.91797 751.0227 771.91797 727.4668 L 771.91797 64.955078 C 771.91797 41.399168 752.95434 22.435547 729.39844 22.435547 L 400.4082 22.435547 L 66.886719 22.435547 z " id="rect6883" style="opacity:1;fill:#de2910;fill-opacity:1;fill-rule:nonzero;stroke:none;stroke-width:1.00157475;stroke-linecap:round;stroke-linejoin:round;stroke-miterlimit:4;stroke-dasharray:none;stroke-dashoffset:0;stroke-opacity:1" transform="scale(0.26458333)"/><path d="m -330.14102,-45.816081 -93.97199,-24.101741 -65.85554,71.2367575 -6.11682,-96.8205195 -88.10066,-40.618976 90.19158,-35.73663 11.40633,-96.34066 61.85829,74.73407 95.15017,-18.92283 -51.96106,81.92482 z" id="path4747" style="opacity:1;fill:#ffde00;fill-opacity:1;fill-rule:nonzero;stroke:none;stroke-width:6.61458302;stroke-linecap:butt;stroke-linejoin:miter;stroke-miterlimit:4;stroke-dasharray:none;stroke-dashoffset:0;stroke-opacity:1;paint-order:markers fill stroke" transform="matrix(0.19068741,0.05563166,-0.05563166,0.19068741,138.27991,120.30694)"/><path d="m -330.14102,-45.816081 -93.97199,-24.101741 -65.85554,71.2367575 -6.11682,-96.8205195 -88.10066,-40.618976 90.19158,-35.73663 11.40633,-96.34066 61.85829,74.73407 95.15017,-18.92283 -51.96106,81.92482 z" id="path4749" style="opacity:1;fill:#ffde00;fill-opacity:1;fill-rule:nonzero;stroke:none;stroke-width:6.61458302;stroke-linecap:butt;stroke-linejoin:miter;stroke-miterlimit:4;stroke-dasharray:none;stroke-dashoffset:0;stroke-opacity:1;paint-order:markers fill stroke" transform="matrix(0.07149604,-0.04653585,0.04653585,0.07149604,150.10427,20.689405)"/><path d="m -330.14102,-45.816081 -93.97199,-24.101741 -65.85554,71.2367575 -6.11682,-96.8205195 -88.10066,-40.618976 90.19158,-35.73663 11.40633,-96.34066 61.85829,74.73407 95.15017,-18.92283 -51.96106,81.92482 z" id="path4751" style="opacity:1;fill:#ffde00;fill-opacity:1;fill-rule:nonzero;stroke:none;stroke-width:6.61458302;stroke-linecap:butt;stroke-linejoin:miter;stroke-miterlimit:4;stroke-dasharray:none;stroke-dashoffset:0;stroke-opacity:1;paint-order:markers fill stroke" transform="matrix(0.08528177,0.00207074,-0.00207074,0.08528177,168.29745,71.007996)"/><path d="m -330.14102,-45.816081 -93.97199,-24.101741 -65.85554,71.2367575 -6.11682,-96.8205195 -88.10066,-40.618976 90.19158,-35.73663 11.40633,-96.34066 61.85829,74.73407 95.15017,-18.92283 -51.96106,81.92482 z" id="path4757" style="opacity:1;fill:#ffde00;fill-opacity:1;fill-rule:nonzero;stroke:none;stroke-width:6.61458302;stroke-linecap:butt;stroke-linejoin:miter;stroke-miterlimit:4;stroke-dasharray:none;stroke-dashoffset:0;stroke-opacity:1;paint-order:markers fill stroke" transform="matrix(0.06483061,0.05544602,-0.05544602,0.06483061,133.66873,148.0134)"/><path d="m -330.14102,-45.816081 -93.97199,-24.101741 -65.85554,71.2367575 -6.11682,-96.8205195 -88.10066,-40.618976 90.19158,-35.73663 11.40633,-96.34066 61.85829,74.73407 95.15017,-18.92283 -51.96106,81.92482 z" id="path4759" style="opacity:1;fill:#ffde00;fill-opacity:1;fill-rule:nonzero;stroke:none;stroke-width:6.61458302;stroke-linecap:butt;stroke-linejoin:miter;stroke-miterlimit:4;stroke-dasharray:none;stroke-dashoffset:0;stroke-opacity:1;paint-order:markers fill stroke" transform="matrix(0.08172458,0.02446144,-0.02446144,0.08172458,163.76246,112.19531)"/></svg>