<?xml version="1.0" ?><svg height="210mm" id="svg6336" version="1.1" viewBox="0 0 210 210" width="210mm" xmlns="http://www.w3.org/2000/svg" xmlns:cc="http://creativecommons.org/ns#" xmlns:dc="http://purl.org/dc/elements/1.1/" xmlns:rdf="http://www.w3.org/1999/02/22-rdf-syntax-ns#" xmlns:svg="http://www.w3.org/2000/svg"><defs id="defs6330"/><g id="layer1" transform="translate(0,-87)"><path d="M 105.94133,92.936072 V 290.72555 h 87.04534 c 6.2325,0 11.24996,-5.01746 11.24996,-11.24996 V 104.18603 c 0,-6.232501 -5.01746,-11.249958 -11.24996,-11.249958 z" id="rect6883" style="opacity:1;fill:#ffffff;fill-opacity:1;fill-rule:nonzero;stroke:none;stroke-width:0.26499999;stroke-linecap:round;stroke-linejoin:round;stroke-miterlimit:4;stroke-dasharray:none;stroke-dashoffset:0;stroke-opacity:1"/><path d="m 17.697111,92.936072 c -6.232502,0 -11.2499593,5.017457 -11.2499593,11.249958 v 175.28956 c 0,6.2325 5.0174573,11.24996 11.2499593,11.24996 H 105.94133 V 92.936072 Z" id="rect6903" style="opacity:1;fill:#009651;fill-opacity:1;fill-rule:nonzero;stroke:none;stroke-width:0.26499999;stroke-linecap:round;stroke-linejoin:round;stroke-miterlimit:4;stroke-dasharray:none;stroke-dashoffset:0;stroke-opacity:1"/><path d="m 107.80712,158.78476 a 33.045918,33.045918 0 0 0 -33.04553,33.04605 33.045918,33.045918 0 0 0 33.04553,33.04604 33.045918,33.045918 0 0 0 25.90746,-12.58889 25.513391,25.513391 0 0 1 -15.19959,5.05602 25.513391,25.513391 0 0 1 -25.513687,-25.51317 25.513391,25.513391 0 0 1 25.513687,-25.51369 25.513391,25.513391 0 0 1 15.29054,5.12889 33.045918,33.045918 0 0 0 -25.99841,-12.66125 z" id="path6885" style="opacity:1;fill:#ff0000;fill-opacity:1;fill-rule:nonzero;stroke:none;stroke-width:0.26499999;stroke-linecap:round;stroke-linejoin:round;stroke-miterlimit:4;stroke-dasharray:none;stroke-dashoffset:0;stroke-opacity:1"/><path d="m 108.53006,202.09686 3.93212,-10.24129 -6.9044,-8.52495 10.95514,0.57493 5.97413,-9.20082 2.83853,10.59661 10.59661,2.83853 -9.20082,5.97414 0.57493,10.95513 -8.52495,-6.9044 z" id="path6890" style="opacity:1;fill:#ff0000;fill-opacity:1;fill-rule:nonzero;stroke:none;stroke-width:0.30391181;stroke-linecap:round;stroke-linejoin:round;stroke-miterlimit:4;stroke-dasharray:none;stroke-dashoffset:0;stroke-opacity:1"/></g></svg>