<?xml version="1.0" ?><svg id="Layer_1" style="enable-background:new 0 0 512 512;" version="1.1" viewBox="0 0 512 512" xml:space="preserve" xmlns="http://www.w3.org/2000/svg" xmlns:xlink="http://www.w3.org/1999/xlink"><style type="text/css">
	.st0{fill:#D81E34;}
	.st1{fill:#FFFFFF;}
	.st2{fill:#31409A;}
	.st3{fill:#F5D02C;}
</style><g><rect class="st0" height="21.3" width="512" y="106.7"/><rect class="st1" height="21.3" width="512" y="128"/><rect class="st0" height="21.3" width="512" y="149.3"/><rect class="st1" height="21.3" width="512" y="170.7"/><rect class="st0" height="21.3" width="512" y="192"/><rect class="st1" height="21.3" width="512" y="213.3"/><rect class="st0" height="21.3" width="512" y="234.7"/><rect class="st1" height="21.3" width="512" y="256"/><rect class="st0" height="21.3" width="512" y="277.3"/><rect class="st1" height="21.3" width="512" y="298.7"/><rect class="st0" height="21.3" width="512" y="320"/><rect class="st1" height="21.3" width="512" y="341.4"/><rect class="st0" height="21.3" width="512" y="362.7"/><rect class="st1" height="21.3" width="512" y="384"/><rect class="st2" height="170.7" width="298.7" y="106.7"/><path class="st3" d="M80,192c0-30.9,25.1-56,56-56c10.7,0,20.7,3,29.3,8.3C154,134.1,139,128,122.7,128c-35.3,0-64,28.7-64,64   c0,35.3,28.7,64,64,64c16.4,0,31.3-6.1,42.6-16.3c-8.5,5.2-18.5,8.3-29.3,8.3C105.1,248,80,222.9,80,192"/><polygon class="st3" points="208,192 238.7,180.1 205.9,182.7 228.4,158.7 200,175.3 209.8,143.9 191.4,171.2 186.7,138.7    183.3,162 182.3,168.7 181.9,171.2 163.5,143.9 173.4,175.3 145,158.7 167.4,182.7 134.7,180.1 165.3,192 134.7,203.9 167.4,201.3    145,225.3 173.4,208.7 163.5,240.1 181.9,212.8 182.3,215.3 183.3,222 186.7,245.3 191.4,212.8 209.8,240.1 200,208.7 228.4,225.3    205.9,201.3 238.7,203.9  "/></g></svg>