<?xml version="1.0" ?><svg id="Layer_1" style="enable-background:new 0 0 512 512;" version="1.1" viewBox="0 0 512 512" xml:space="preserve" xmlns="http://www.w3.org/2000/svg" xmlns:xlink="http://www.w3.org/1999/xlink"><style type="text/css">
	.st0{fill:#303E99;}
	.st1{fill:#BD1F34;}
	.st2{fill:#FFFFFF;}
	.st3{fill:#F4D130;}
</style><g><rect class="st0" height="149.4" width="512" y="106.7"/><rect class="st1" height="149.3" width="512" y="256"/><polygon class="st2" points="0,106.7 0,405.4 260,256  "/><polygon class="st3" points="35.1,376.6 23.6,369.9 13.7,378.9 16.5,365.8 4.9,359.2 18.2,357.9 20.9,344.8 26.3,357 39.6,355.5    29.6,364.4  "/><path class="st3" d="M70.1,229l-9.7-16.7l-5.6-0.6l13.3,18.9L70.1,229z M62.6,236.6l-20.4-15.7l-0.7-9.2l8.3-0.3l16.9,20.7   L62.6,236.6z M59.5,240.2l-16.8-9.5l-0.7-5.6L61,238.2L59.5,240.2z"/><path class="st3" d="M94.2,225.5l5.1-18.7l-3.5-4.4l-4.1,22.8L94.2,225.5z M83.5,225.5l-3.1-25.6l6-7l6,5.7l-2.9,26.6L83.5,225.5z    M78.7,225.8l-5-18.7l3.5-4.4l4.1,22.8L78.7,225.8z"/><path class="st3" d="M113.7,240.6l17-9.3l0.8-5.6l-19.3,12.8L113.7,240.6z M106.3,232.8l16.3-20l9.2-0.5l0.1,8.3l-21.1,16.4   L106.3,232.8z M102.8,229.6l9.9-16.6l5.6-0.6l-13.6,18.8L102.8,229.6z"/><path class="st3" d="M116.7,264l18.7,5.1l4.4-3.5l-22.8-4.1L116.7,264z M116.8,253.2l25.6-3.1l6.9,6l-5.7,6l-26.6-2.9L116.8,253.2z    M116.5,248.5l18.7-5l4.4,3.5l-22.8,4.1L116.5,248.5z"/><path class="st3" d="M102.5,283l9.8,16.7l5.6,0.6l-13.4-18.9L102.5,283z M110.1,275.3l20.5,15.6l0.8,9.2l-8.3,0.3l-17-20.6   L110.1,275.3z M113.1,271.7l16.9,9.4l0.7,5.6l-19.2-13L113.1,271.7z"/><path class="st3" d="M78.5,286.5l-4.9,18.7l3.5,4.4l4-22.8L78.5,286.5z M89.3,286.5l3.3,25.6l-6,7l-6-5.7l2.7-26.6L89.3,286.5z    M94,286.1l5.2,18.6l-3.4,4.4l-4.2-22.7L94,286.1z"/><path class="st3" d="M59.1,271.9l-16.8,9.6l-0.7,5.6l19.1-13.1L59.1,271.9z M66.7,279.5l-15.9,20.3l-9.2,0.6l-0.2-8.3l20.8-16.7   L66.7,279.5z M70.2,282.6l-9.7,16.7L55,300l13.3-19L70.2,282.6z"/><path class="st3" d="M55.8,248.3l-18.7-5l-4.4,3.5l22.8,4L55.8,248.3z M55.8,259l-25.6,3.3l-7-6l5.7-6l26.6,2.7L55.8,259z    M56.2,263.8l-18.6,5.2l-4.4-3.5l22.7-4.2L56.2,263.8z"/><path class="st3" d="M86.3,224.5c17.4,0,31.5,14.1,31.5,31.5c0,17.4-14.1,31.5-31.5,31.5c-17.4,0-31.5-14.1-31.5-31.5   C54.8,238.6,68.9,224.5,86.3,224.5"/><polygon class="st3" points="194.7,266.8 202.6,256 194.7,245.2 207.3,249.4 215.2,238.6 215.1,251.9 227.8,256 215.1,260.1    215.2,273.4 207.4,262.6  "/><polygon class="st3" points="35.1,132.1 23.6,138.9 13.7,129.8 16.5,142.9 4.9,149.5 18.2,150.9 20.9,164 26.3,151.7 39.6,153.2    29.6,144.3  "/></g></svg>