<?xml version="1.0" ?><svg id="Layer_1" style="enable-background:new 0 0 512 512;" version="1.1" viewBox="0 0 512 512" xml:space="preserve" xmlns="http://www.w3.org/2000/svg" xmlns:xlink="http://www.w3.org/1999/xlink"><style type="text/css">
	.st0{fill:#3F9645;}
	.st1{fill:#FFFFFF;}
</style><g><rect class="st0" height="298.7" width="512" y="106.7"/><path class="st1" d="M144.9,191.3c-0.5,7-1.1,19.2,4.8,20.5c7.2,0.7,3.2-12.1,5.8-14.5c0.5-1.1,1.4-1.2,1.5,0.3v10.9   c-0.1,3.5,2.3,4.6,4.1,5.3c1.9-0.1,3.1-0.1,3.9,1.8c0.3,6.3,0.6,12.5,0.9,18.8c0,0,4.4,1.3,4.6-10.6c0.2-6.9-1.4-12.8-0.4-14.1   c0-1.3,1.7-1.4,2.9-0.8c1.9,1.3,2.7,3,5.6,2.3c4.4-1.2,7.1-3.4,7.2-6.8c-0.3-3.2-0.6-6.5-2-9.7c0.2-0.6-0.9-2.1-0.7-2.7   c0.8,1.3,2,1.1,2.3,0c-0.8-2.5-1.9-4.9-3.8-5.9c-1.6-1.4-3.9-1.1-4.7,1.8c-0.4,3.3,1.2,7.3,3.6,10.5c0.5,1.3,1.2,3.4,0.9,5.2   c-1.3,0.7-2.6,0.4-3.6-0.7c0,0-3.5-2.6-3.5-3.2c0.9-6,0.2-6.7-0.3-8.3c-0.4-2.3-1.5-3-2.3-4.6c-0.9-0.9-2.1-0.9-2.6,0   c-1.6,2.7-0.8,8.5,0.3,11.1c0.8,2.4,2.1,3.9,1.5,3.9c-0.5,1.4-1.5,1-2.2-0.5c-1-3.2-1.3-8-1.3-10.2c-0.3-2.7-0.7-8.4-2.4-9.9   c-1.1-1.5-2.7-0.8-3.2,0.6c-0.1,2.7-0.1,5.3,0.2,7.8c1.2,4.3,1.6,8.1,2.2,12.5c0.2,5.9-3.4,2.6-3.2-0.4c0.8-3.8,0.6-9.8-0.1-11.3   c-0.6-1.5-1.3-1.9-2.7-1.6c-1.1-0.1-4,3.1-4.8,8.3c0,0-0.7,2.7-1,5.1c-0.4,2.7-2.2,4.6-3.4-0.4   C147.4,198.2,146.7,189.2,144.9,191.3"/><path class="st1" d="M164.4,220c-6.3,3.1-12.4,6-18.7,9c0.2-4.2,8.9-11.9,14.8-12C164.3,217,163.4,218.4,164.4,220"/><path class="st1" d="M188.2,180.4c-0.4,0-0.7,0.3-1.2,0.4c-1.5,0.5-3,1.8-2.5,4.4c1.8,11,3,19.3,4.8,30.3c0.3,1.3-0.8,3-2.2,2.8   c-2.4-1.6-2.9-4.8-7-4.7c-2.9,0-6.2,3.2-6.7,6.3c-0.5,2.4-0.7,5.1,0,7.2c2,2.5,4.5,2.2,6.7,1.7c1.8-0.7,3.2-2.5,3.8-2.1   c0,0,0,0,0,0c0,0,0,0,0,0c0.4,0.7,0,6.4-8.3,10.8c-5.1,2.3-9.1,2.8-11.3-1.3c-1.4-2.6,0.1-12.5-3.2-10.2c-9.8,25.4,23,28.9,26.7,1   c0.2-0.8,1-1.6,1.5-1.4c0.2,0.1,0.4,0.4,0.5,1c-0.8,25.2-25.4,27-29.6,19c-1-1.9-1.3-6-1.5-8.5c-0.2-1.5-0.6-2.4-1-2.7   c-1-0.7-2.3,1.2-2.6,4.6c-0.4,2.7-0.3,3.5-0.3,6.1c1.3,19.9,33.1,11.4,38.2-5.1c2.6-8.5,0-14.9,0.8-15.7c0,0,0,0,0,0c0,0,0,0,0,0   l0,0c0,0,0.1,0,0.1,0c3.2,3.4,7.6,0.4,8.6-0.7c0.4-0.6,1.5-1,2.2-0.2c2.5,1.8,6.8,0.9,7.7-2.2c0.5-3,0.9-6.2,1.1-9.4   c-1.6,0.5-2.9,0.9-3.4,1.4c-0.1,0.1-0.2,0.3-0.2,0.5c-0.1,0.9-0.3,1.8-0.4,2.7c0,0.1,0,0.1-0.1,0.2c-0.1,0.1-0.2,0.2-0.3,0.3   c-0.6,0.3-1.5,0.1-1.6-0.7c-0.8-3.5-3.9-3.9-5.8,1.4c-1.3,1-3.6,1.2-3.9-0.3c0.3-3.6-1.1-4.1-4.1-2.4c-0.9-7.1-1.9-14-2.8-21.1   c1.2,0,2.3,0.9,3.4-0.5c-1.2-3.7-3.7-11.3-5.2-12c0,0,0,0,0,0c-0.1-0.1-0.1-0.2-0.2-0.2c0,0-0.1,0-0.1-0.1c0,0-0.1,0-0.1-0.1   c-0.1,0-0.1,0-0.2-0.1C188.5,180.4,188.4,180.4,188.2,180.4 M179.4,219.6c0.6-0.1,1.4,0.2,1.7,1.1c0.3,0.7,0,1.5-0.3,1.9v0   c0,0,0,0,0,0c-0.2,0.3-1.1,0.2-1.7,0.2c-0.7,0-1.1-0.2-1.6-0.8c-0.2-0.7,0.4-1.3,0.7-1.8c0,0,0,0,0,0c0,0,0.1-0.1,0.1-0.2   C178.5,219.9,178.9,219.7,179.4,219.6"/><path class="st1" d="M210.4,179.9c-0.8,0-1.6,0.3-2.2,0.6c-1.6,1.6-2,4.1-0.7,5.6c1.2,0.6,2.5,1.9,1.7,2.5   c-3.5,3.8-12.7,10.1-13.2,11.2c0,0,0,0,0,0c0,0,0,0,0,0v0c0,0,0,0,0,0c0,0,0,0,0,0s0,0,0,0c0,0,0,0,0,0c0,0,0,0,0,0l0,0   c0.5,0.3,6.2,0.3,6.9,0c0,0,0,0,0,0h0v0c2-0.7,11.3-11.4,11.3-11.4c-0.5-0.4-0.9-0.7-1.4-1.1c-0.5-0.4-0.5-0.9,0-1.3   c2.3-1.3,1.6-4.3,0.4-5.7C212.2,180,211.2,179.8,210.4,179.9 M209.9,183.2c0.6-0.1,1.3,0.5,1.6,1.2c0.4,0.8,0.2,1.6-0.4,1.7   c-0.6,0.1-1.4-0.4-1.7-1.2c-0.4-0.8-0.2-1.6,0.4-1.7C209.8,183.2,209.9,183.2,209.9,183.2"/><path class="st1" d="M146.4,237.9c-3.5,5.6-3.8,13.9-1.9,16.4c1,1.2,2.7,1.7,4,1.3c2.2-1,3.2-5.4,2.6-7.1c-0.7-1.2-1.3-1.3-2-0.4   c-1.6,3.2-2.2,1-2.3-0.8c-0.2-3.3,0.1-6.4,0.4-8.8C147.5,236.1,147.1,236.9,146.4,237.9"/><path class="st1" d="M296.3,229c-3.4-7.3-8.1-14.5-9.6-17.3c-1.5-2.8-12.8-19.2-14.4-21c-3.7-4.4,6,1.8-1.2-6.8   c-2.7-2.3-2.9-2.5-5.2-4.4c-1.1-0.8-3.9-2.3-4.4,0.2c-0.3,2.2-0.1,3.4,0.3,5.2c0.3,1.2,2,3.2,2.9,4.4   c11.4,15.4,21.6,30.9,31.4,50.5C297.6,238.9,297.2,230.2,296.3,229"/><path class="st1" d="M281.4,253.4c-0.7,0.7,1.6,4,4.7,3.9c5-0.6,9.5-3.4,13.6-10.8c1.1-1.7,3-5.4,3.1-8.3c0.4-16.9-0.8-30-3.4-42.2   c-0.2-1.2-0.1-2.6,0.1-2.9c0.3-0.4,1.4,0,2-1c0.9-0.9-2.3-8.2-4.1-11c-0.6-1.3-0.9-2.1-1.9,0.2c-1.1,1.8-1.9,5-1.8,7.9   c2.4,16.6,3.1,31.2,4.7,47.8c0.1,1.6-0.1,3.9-1.2,4.9C293.3,246,287.6,251.1,281.4,253.4"/><path class="st1" d="M349.4,253.3c-3.6,2.1-3.6,4.5-0.7,4.6c5-0.6,11-1,15.1-7.2c1.1-1.7,2.4-6.4,2.5-9.3   c0.4-16.9-0.2-33.4-2.8-45.6c-0.2-1.2-0.7-3.9-0.5-4.3c0.3-0.8,2,0.1,2.5-0.9c0.9-0.9-4.2-7.4-6-10.2c-0.6-1.3-0.9-2.1-1.9,0.2   c-1.1,1.8-1.5,5.1-1,7.9c2.7,18,4.7,35.5,5.1,51.5c-0.2,1.5-0.3,2.3-1,4.3c-1.6,2-3.3,4.5-5,5.8C354,251.2,350.5,252.4,349.4,253.3   "/><path class="st1" d="M352.1,237.1c0-4.2,0.1-7.9-0.1-11c-0.1-3.1-1.6-15-2.1-17.5c-0.5-2.5-1-6.4-1.7-9.4c-0.2-1.2-0.8-5-0.6-5.3   c0.3-0.9,1.4,0,2-1c0.8-0.9-2.9-10.5-4.8-13.2c-0.7-1.2-1.9-0.8-3.4,1.2c-1.4,1.3-0.9,4.3-0.3,7.2c3.6,18.8,6.3,38.6,5.7,56.5   C346.6,246.1,352.1,240,352.1,237.1"/><path class="st1" d="M325.4,213.8c-2.3,0-7-4.4-8.4-7c-0.5-1.5-0.2-2.9,0.3-3.8c0.8-0.5,2.1-1.2,3.1-0.6c0,0,1,1.4,0.8,1.6   c1.2,0.6,1.8,0.3,1.9-0.3c0.1-0.9-0.4-1.4-0.4-2.4c0.5-2.6,3.5-3,4.7-1.4c0.8,1,1.1,3.2,1.3,4.7c0,0.8-1.2-0.1-1.9,0   c-0.7,0.2-0.9,1-0.9,1.7C325.7,208.4,325.4,211.5,325.4,213.8"/><path class="st1" d="M283.5,241.8c0.6-5.7-0.2-17.4-0.3-20.8c-0.2-8-1.5-23.4-2.2-26c-0.7-4.9,2,0.5,1.6-2.3   c-0.9-4.8-3.6-8.1-6.7-12.6c-1-1.4-1-1.7-2.6,0.4c-1.7,4-0.2,6.7,0.2,9.8c2.3,10,3.6,19.3,4.2,28.4c0.6,9.1,0.8,20.5,0.2,30.1   C279.8,248.8,282.6,246,283.5,241.8"/><path class="st1" d="M359.8,232.6c-4-6.7-10-14.6-11.6-17.3c-1.6-2.7-15.3-22.7-17-24.5c-5-5.2,2.3-0.9-0.9-4.9   c-2.8-3-3.5-4-5.9-5.8c-1.2-0.8-1.9-2.2-2.3,0.3c-0.2,2.2-0.3,4.7-0.2,6.5c0,1,1,2.9,2,4.1c12.1,14.9,25.3,33.1,35.9,52.2   C361.3,242.4,360.8,233.8,359.8,232.6"/><path class="st1" d="M311.3,311.9L311.3,311.9c-3.6,0.9-3.5,4.6-1.2,6.2c-37.4,0-94.8-0.6-107.1-0.6c-6.9,0-28.7-0.8-29.1-0.8   c4.7,6.8,11.4,8.2,20.3,8.4c16.6,0,93.6-0.2,115.5-0.2c-1.6,2.8,0.1,7.2,1.4,8c0,0,0.1,0,0.1,0.1c0,0,0.1,0,0.2,0c0,0,0,0,0,0   c1.5,0.3,2.1-0.7,2.6-1.5c2.3,0.2,15.6,0.4,16.8,0l0,0c0.8,1.2,1.6,2.3,3.2,2.1c2.7-0.6,4.9-0.9,5-6.4c0,0-0.3-9.4-6.5-8.8   c-1.5,0.2-5.6,0.6-5.6,0.6c-4.8-0.6-8.3-0.6-13.6-0.8c0.5-0.6,1.4-3.2,0.3-4.1c-0.3-0.2-0.7-0.4-1.3-0.3h0c0,0,0,0,0,0l0,0   c0,0,0,0-0.1,0c0,0-0.1-0.1-0.1-0.1c0,0,0,0,0,0c-0.3-0.4-0.4-1.4-0.6-1.6C311.4,312,311.4,312,311.3,311.9L311.3,311.9   L311.3,311.9L311.3,311.9L311.3,311.9 M313.9,325.4C313.9,325.4,313.9,325.4,313.9,325.4c5.5,0.3,10.6,0.1,16.1,0.3   c0.9,0.7,0.4,2.4-0.1,2.7c0,0-0.1,0-0.1,0h-0.1c0,0-0.1,0-0.1,0c-1.8,0-2.8-0.1-4.6-0.1c0-0.1,0-0.2,0-0.3   c-0.4-1.3-3.5-1.2-4.2-0.2c0,0,0,0,0,0.1c0,0,0,0.1,0,0.1c0,0,0,0.1,0,0.1c0,0,0,0.1,0,0.1c0,0,0,0.1,0,0.1   c-2.4,0.3-4.5-0.1-6.9-0.2C313,327.4,313,325.8,313.9,325.4"/><path class="st1" d="M216.7,185.6c-3.6,10.4,2.1,21.8,6.1,20.7c2.9,1.2,4.7-4.3,5.9-10.3c0.8-1.7,1.4-1.9,1.8-1   c-0.1,7.9,0.6,9.7,2.6,12.1c4.6,3.5,8.3,0.4,8.6,0.2c0.3-0.3,3.6-3.6,3.6-3.6c0.8-0.8,1.8-0.9,3-0.1c1.1,1,0.9,2.7,3.2,3.9   c2,0.8,6.1,0.2,7.1-1.5c1.3-2.2,1.6-3,2.2-3.8c0.9-1.2,2.5-0.7,2.5-0.3c-0.1,0.7-1.1,1.4-0.4,2.6c1.1,0.8,1.4,0.3,2,0.1   c2.3-1.1,4.1-6.1,4.1-6.1c0.1-1.9-0.9-1.7-1.6-1.3c-0.9,0.5-0.9,0.7-1.8,1.3c-1.1,0.2-3.3,0.9-4.4-0.8c-1.1-2-1.1-4.8-2-6.9   c0-0.2-1.5-3.2-0.1-3.4c0.7,0.1,2.2,0.5,2.4-0.7c0.7-1.2-1.6-4.6-3.1-6.4c-1.3-1.5-3.2-1.7-5-0.2c-1.3,1.2-1.1,2.5-1.3,3.7   c-0.3,1.4-0.3,3.2,1.2,5c1.3,2.5,3.6,5.7,2.8,10.2c0,0-1.3,2.1-3.7,1.9c-1-0.2-2.6-0.6-3.4-6.9c-0.6-4.7,0.1-11.4-1.9-14.5   c-0.7-1.9-1.3-3.7-3-0.5c-0.5,1.3-2.5,3.2-1,7.1c1.2,2.5,1.7,6.5,1.2,11c-0.8,1.3-1,1.7-2.1,3c-1.5,1.7-3.2,1.2-4.5,0.6   c-1.2-0.8-2.1-1.2-2.7-3.8c0.1-4.1,0.3-10.8-0.4-12.2c-1.1-2.2-2.9-1.4-3.7-0.7c-3.7,3.4-5.6,9.2-6.7,13.8c-1,3.3-2.1,2.4-2.9,1   C219.1,197.1,219,183.3,216.7,185.6"/><path class="st1" d="M229,207.1C229,207.1,228.9,207.1,229,207.1c-0.1,0.1-0.1,0.1-0.1,0.1c-0.3,0.2-0.6,0.6-1.2,1   c-1.1,1.2-1.3,2.1-1.2,4.5c0.1,0.3,2,5.7,3.7,9.6c1.1,4,2.2,8.6,1.4,12.9c-2.6,5.7-7.9,10.8-13,13.6c-2.6,0.8-4.8,0.6-5.4,0l0,0   c-1.5-1-1.5-2.8-1.5-3.1v0l0,0c4.3-3,9.2-5.4,13.1-13.5c1.1-3.1,1.5-5,0.4-9.8c-0.4-1.8-1-3.2-2.2-4.5c0,0,0,0,0,0   c0.7-0.3,2.6,1.1,2.9,0.2c-0.5-2.3-2-5.4-3.8-6.9c-1.5-1.4-3.2-1.6-4.6-0.3c-1.6,0.9-1.9,4-1.2,6.8c0.8,2.1,3.1,2.4,4.8,6.6v0   c0,0.3,0.6,3.1-0.3,4.3c-0.7,2.1-9.2,8.8-9.8,9.2c0,0,0,0,0,0c0,0,0,0,0,0l0,0l0,0h0h0c0,0,0,0,0,0l0,0c0,0,0,0,0,0   c0-0.2,0-0.6,0-1.3c-0.1-1.3,0.5-4.1,0.4-4.6v0l0,0v0h0c-2.8,1.8-3.8,7.4-4.3,9.1c-7.2,4.9-15.3,8.6-19.9,13.6   c-2.4,3.8,16.8-4.4,19-5.4c0,0,0,0,0.1,0.1c0.4,0.5,0.5,2.1,1.7,3.6c2,2.7,6.2,4.4,10.4,3.3c6.9-2.5,10.9-7.2,15-12.5   c0.6-0.9,1.5-1.5,2.3-0.9c2.8,6.3,10.8,10.7,21.3,11.2c2.4-2.9,1.3-4.4,0.3-5c-0.3-0.2-5.2-2.1-5.9-4c-0.5-1.8,0.7-3.3,3-4.5   c6.7-0.8,13.3-1.7,19.6-3.8c0.1-2.1,1.3-5.3,2.2-6.7c0.6-1,1-1.1,1.1-1.2c0,0,0,0,0,0l0,0c0,0,0,0,0,0v0c0,0,0-0.1,0-0.2L276,228   l-21.3-0.1c-0.3-0.1-0.5-0.2-0.6-0.3c0,0,0,0,0,0c0,0,0,0,0,0l0,0c0,0,0,0,0,0l0,0c0,0,0,0,0,0l0,0v0v0v0v0v0c0,0,0,0,0,0v0v0l0,0   c0,0,0,0,0,0c0.1-0.1,0.4-0.3,0.7-0.4c5.1-0.7,14.1-2.2,14.8-10.9c-0.1-4.5-1.9-7.5-7.5-8.3c-4.1,0.3-7,4.3-6.5,8.6   c-0.2,1.2,0.4,3.5-0.8,3.7c-7.8,0.7-16.4,5.6-16.7,9.1h0l0,0c0,0,0,0,0,0h0c0,0,0,0,0,0s0,0,0,0h0h0h0l-0.1,0   c-0.5-0.1-1.2-1-1.1-2.2c-0.3-6.1-2.3-13-5.4-18.3c-1.1-1.1-1.6-1.6-1.9-1.6h0H229C229,207.1,229,207.1,229,207.1L229,207.1   L229,207.1 M260.2,214.9c0.5,0,1.1,0.1,1.7,0.4c0.9,0.5,1.4,1.2,1.3,1.8c0,0,0,0,0,0.1c0,0,0,0,0,0.1c0,0,0,0,0,0c0,0,0,0,0,0   c0,0,0,0,0,0c0,0-0.1,0.1-0.1,0.1c-0.4,0.4-1.3,0.3-2.2-0.2c-0.8-0.5-1.4-1.2-1.3-1.8c0,0,0,0,0-0.1c0-0.1,0-0.1,0.1-0.2   c0,0,0,0,0-0.1l0,0c0,0,0.1-0.1,0.1-0.1C259.8,215,260,214.9,260.2,214.9 M240.3,232.9c0.1,0,0.1,0,0.2,0h0c2.4,0.6,5.9,0.7,8.9,1   c2.5,0.2,3.7,2.1,1.4,2.9c-2.3,0.8-4.5,1.4-4.5,4.7c0.3,1.6,0.2,2.5,0,2.9c0,0,0,0.1-0.1,0.1c0,0,0,0,0,0l0,0c0,0,0,0,0,0l0,0   c0,0,0,0,0,0c0,0-0.1,0-0.1,0.1c0,0-0.1,0-0.1,0c-0.6,0.1-1.4-0.4-2-0.7c-1.4-1-5.4-3.5-5.9-8.7C238,234,238.9,233,240.3,232.9"/><path class="st1" d="M171.8,185.7c2.5,1.2,7.1,0.7,6.9-3.3c0-0.3-0.1-1.5-0.1-1.9c-0.5-1.2-1.9-0.9-2.2,0.3c-0.1,0.4,0.2,1-0.2,1.2   c-0.2,0.2-1,0.1-1-1c0-0.3-0.3-0.7-0.4-0.9c-0.2-0.1-0.3-0.1-0.5-0.1c-0.3,0-0.3,0.1-0.5,0.4c-0.1,0.3-0.2,0.6-0.2,0.9   c0,0.4-0.2,0.5-0.5,0.6c-0.3,0-0.2,0-0.5-0.1c-0.2-0.2-0.3-0.2-0.3-0.5c0-0.3-0.1-0.8-0.2-1c-0.1-0.2-0.3-0.3-0.6-0.3   c-1.3,0-1.4,1.5-1.4,2.1C170,182.2,170,184.9,171.8,185.7"/><path class="st1" d="M243.8,216.2c2.5,1.2,8.3,0.5,6.9-3.3c0-0.3-0.1-1.5-0.1-1.9c-0.5-1.2-1.9-0.9-2.2,0.3c-0.1,0.4,0.2,1-0.2,1.2   c-0.2,0.2-1,0.1-1-1c0-0.3-0.3-0.7-0.4-0.9c-0.2-0.1-0.3-0.1-0.5-0.1c-0.3,0-0.3,0.1-0.5,0.4c-0.1,0.3-0.2,0.6-0.2,0.9   c0,0.4-0.2,0.5-0.5,0.6c-0.3,0-0.2,0-0.5-0.1c-0.2-0.2-0.3-0.2-0.3-0.5s-0.1-0.8-0.2-1c-0.1-0.2-0.3-0.3-0.6-0.3   c-1.3,0-1.4,1.5-1.4,2.1C242,212.7,242,215.4,243.8,216.2"/><path class="st1" d="M285.8,203.6c2.5,1.2,7.1,0.7,6.9-3.3c0-0.4-0.1-1.5-0.1-1.9c-0.5-1.2-1.9-0.9-2.2,0.3c-0.1,0.4,0.2,1-0.2,1.2   c-0.2,0.2-1,0.1-0.9-1c0-0.3-0.3-0.7-0.4-0.9c-0.1-0.1-0.3-0.1-0.5-0.1c-0.3,0-0.3,0.1-0.5,0.4c-0.1,0.3-0.2,0.6-0.2,0.9   c0,0.4-0.2,0.5-0.5,0.6c-0.3,0-0.3,0-0.5-0.1c-0.2-0.2-0.3-0.2-0.3-0.5c0-0.3-0.1-0.8-0.2-1c-0.1-0.2-0.4-0.3-0.6-0.3   c-1.3,0-1.4,1.5-1.4,2.1C284,200.1,284,202.8,285.8,203.6"/><path class="st1" d="M307.6,235.2c-4.3,4.8-2.4,12.8-1.4,14.5c1.4,2.8,2.5,4.6,5.3,6c2.5,1.9,4.4,0.7,5.5-0.6   c2.5-2.6,2.5-9.3,3.7-10.6c0.8-2.4,2.9-2,3.9-0.9c1,1.4,2.1,2.3,3.6,3.1c2.3,2.1,5.1,2.4,7.9,0.6c1.9-1.1,3.1-2.4,4.2-5.1   c1.2-3.3,0.6-21.2,0.3-30.2c-0.1-0.7-2.4-12.4-2.4-12.5s-0.3-6-0.6-7.3c0-0.6-0.2-0.7,0.4-0.6c0.6,0.5,0.7,0.6,1.1,0.7   c0.6,0.1,1.2-1,0.8-1.9c-1.9-3.6-3.9-7.2-5.9-10.8c-0.5-0.5-1.1-1-1.8,0.1c-0.7,0.6-1.5,1.8-1.5,3.2c0.2,2.6,0.6,5.2,0.8,7.7   c0.8,4.4,1.6,8.8,2.3,13.2c0.7,9.4,0.9,18,1.7,27.3c-0.1,4-1.3,9.2-2.5,9.7c0,0-1.8,1-2.9-0.1c-0.9-0.3-4.3-5.7-4.3-5.7   c-1.8-1.6-2.9-1.2-4.2,0c-3.5,3.3-5,9.6-7.3,13.9c-0.6,0.9-2.3,1.8-4.2-0.1C305.3,242.2,308.2,232.8,307.6,235.2"/><path class="st1" d="M286.9,180.6c2.2,0.9,3.8,5.4,3.2,7.6c-0.4,2.7-1.6,5.6-2.5,5.2c-0.9-0.3,0.6-2.7-0.3-5.1   c-0.5-1.6-3.5-4.5-3.2-5.4C283.7,181,285.6,180.2,286.9,180.6"/><path class="st1" d="M314.7,237.9c0.5-5.4-0.3-8.6-0.5-11.8c-0.1-3.1-3.6-28.7-4.3-31c-0.8-4.5,3.3-0.6,2.9-3.2   c-1.4-3.3-5-8.1-6.2-11c-0.7-1.2-0.4-2.3-1.9-0.3c-1.4,4.6-1.9,8.3-1.3,11.2c3.6,18.8,7.3,36,6.7,53.9   C311.8,245.7,313.8,241.8,314.7,237.9"/><path class="st1" d="M352.3,186.9c2,1,3.2,6.6,3,8.2c-0.4,2.9-1.5,6.1-2.2,5.7c-0.8-0.4,0.2-4.3-0.2-5.6c-0.4-1.7-3.2-4.9-2.9-5.8   C349.3,187.4,351,186.6,352.3,186.9"/><path class="st1" d="M203.1,227.8c1.9,0.7,3.1,4.8,2.8,6c-0.4,2.1-1.4,4.5-2.1,4.2c-0.8-0.3,0.2-3.2-0.2-4.1   c-0.2-2.2-2.8-3.3-2.8-4.3C200.3,227.8,201.9,227.5,203.1,227.8"/><path class="st1" d="M151.8,179.2c2.8,0.9,3,5,2.8,6.2c-0.4,2.2-1.4,4.6-2.1,4.3c-0.8-0.3,0-3.3-0.4-4.2c-0.4-1.3-2.8-3.7-2.5-4.4   C149,179.6,150.7,179,151.8,179.2"/><path class="st1" d="M207.7,198.9c-2.2,1.2-3,4.7-1.7,6.7c1.3,1.8,3.3,1.1,3.5,1.1c2.1,0.3,3.4-4,3.4-4s0.1-1.2-2.5,1.1   c-1.1,0.2-1.2-0.2-1.5-0.8c-0.2-1.1-0.2-2.2,0.3-3.3C209.8,198.6,209,198.1,207.7,198.9"/><path class="st1" d="M224,177.6c-1.1,0.7-3.3,3-3.3,5.6c-0.1,1.5-0.3,1.5,0.6,2.4c0.7,1,1.4,0.9,2.8,0.2c0.8-0.6,1.1-1,1.3-2   c0.3-1.7-1.8,0.8-2-1.1c-0.5-1.7,0.9-2.4,2.1-4.1C225.6,177.5,225.6,176.7,224,177.6"/><path class="st1" d="M237.2,179.9c-0.5,1-1,6.5-0.9,6.5c-0.4,1.6,1.7,2.3,2.6,0.2c1.4-3.8,1.4-5.4,1.5-7.1   C239.9,177.1,238.3,177.2,237.2,179.9"/><path class="st1" d="M320,222.1c0.3-0.3,11.7-8.4,11.7-8.4c1.2-0.4,0.9,4.2,0.4,4.1c0.2,0.9-11.2,8.7-12,8.4   C319.4,226.6,318.8,223.1,320,222.1"/><path class="st1" d="M330.3,222c2,1,2.8,6.9,2.6,8.5c0.1,3.1-1.9,5.6-2.7,5.2c-0.8-0.4,0.1-3.8-0.3-5.1c-0.4-1.7-2.1-5-1.9-5.9   C327.5,222.7,329.1,221.7,330.3,222"/><path class="st1" d="M262.6,247.3c0.8-1.2,3.2-2.8,3.3-2.8c1.1-0.6,2.2,0.4,2.2,0.4c0.2,1.1-0.7,2.2-0.4,3.7c0.2,0.6,0.4,1.3,1.5,1   c1.8-1.4,3.5-1.5,5.3-1.6c1.4,0.1,1.4,2.4,0.6,2.5c-3.3,0.7-4.8,1.6-7.2,2.5c-1.1,0.7-2.1-0.2-2.1-0.3c0-0.1-0.7-0.6-0.2-2.1   c0.1-1.2-0.4-1.9-1.4-1.7c-0.8,0.4-1.4,0.7-1.8-0.2C262.2,248,262.1,247.7,262.6,247.3"/><path class="st1" d="M342.3,250.5c0.5,0.6,0.8,1.2,0,2.2c-0.8,0.7-1.4,1.1-2.2,1.9c-0.4,0.6-0.6,1.6,0.5,1.9c2.1,0.6,7-2.6,7-2.7   c0.8-0.6,0.5-1.7,0.5-1.7c-0.5-0.5-1.5-0.2-2.2-0.3c-0.3,0-1.4-0.2-0.9-1.1c0.4-0.6,0.6-1,0.9-1.7c0.3-0.7,0-1.2-1.2-1.6   c-1.2-0.2-1.7-0.1-3.1,0c-0.7,0.2-1,0.5-1.1,1.4C340.7,250,341.5,249.9,342.3,250.5"/></g></svg>