<?xml version="1.0" ?><svg id="Layer_1" style="enable-background:new 0 0 512 512;" version="1.1" viewBox="0 0 512 512" xml:space="preserve" xmlns="http://www.w3.org/2000/svg" xmlns:xlink="http://www.w3.org/1999/xlink"><style type="text/css">
	.st0{fill:#D91D42;}
	.st1{fill:#FFFFFF;}
</style><g><rect class="st0" height="149.4" width="512" y="106.7"/><rect class="st1" height="149.3" width="512" y="256"/><path class="st1" d="M153.7,181.3c0,31-25.1,56.2-56.2,56.2c-31,0-56.2-25.2-56.2-56.2c0-31,25.1-56.2,56.2-56.2   C128.5,125.2,153.7,150.3,153.7,181.3"/><path class="st0" d="M171.3,181.3c0,29.3-23.8,53.1-53.1,53.1s-53.1-23.8-53.1-53.1s23.8-53.1,53.1-53.1S171.3,152,171.3,181.3"/><polygon class="st1" points="104.4,182.7 96.8,176.8 89.2,182.7 92.1,173.2 84.5,167.4 93.9,167.5 96.8,158 99.7,167.5    109.2,167.4 101.5,173.2  "/><polygon class="st1" points="164.3,182.7 156.7,176.8 149,182.7 152,173.2 144.3,167.4 153.8,167.5 156.7,158 159.6,167.5    169,167.4 161.4,173.2  "/><polygon class="st1" points="134.4,160.5 126.8,154.6 119.1,160.5 122.1,151 114.4,145.2 123.9,145.2 126.8,135.8 129.7,145.2    139.1,145.2 131.5,151  "/><polygon class="st1" points="115.7,218.2 108,212.4 100.4,218.2 103.3,208.8 95.7,203 105.1,203 108,193.6 110.9,203 120.4,203    112.7,208.8  "/><polygon class="st1" points="153.1,218.2 145.5,212.4 137.9,218.2 140.8,208.8 133.1,203 142.6,203 145.5,193.6 148.4,203    157.8,203 150.2,208.8  "/></g></svg>